<svg width="120" height="120" viewBox="0 0 120 120" fill="none" xmlns="http://www.w3.org/2000/svg">
<rect width="120" height="120" rx="50" fill="white"/>
<path d="M54.6372 34.1537C51.5774 30.3592 55.4456 27.0607 58.7298 30.6626C59.4276 31.4279 60.1327 32.2468 60.9023 33.0898C64.5484 36.41 67.9595 37.2699 72.8125 37.125C73.6027 37.107 74.3929 37.0889 75.207 37.0703V37.0703C76.1586 37.033 76.8616 36.1694 76.705 35.2301C76.648 34.8879 76.5909 34.5452 76.5336 34.2016C76.264 32.5838 77.6156 31.1205 79.1552 31.686C79.2055 31.7045 79.2574 31.7236 79.3108 31.7434C79.7613 31.9099 80.1583 32.2 80.4557 32.5772C81.9092 34.4212 82.0621 34.6585 83.8125 37.375C86.8951 41.834 88.9746 44.0881 93.7017 45.6161C94.4609 45.8616 95 46.5433 95 47.3413V47.3413C95 48.2694 94.2815 49.0597 93.3534 49.0724C89.9829 49.1184 87.8595 48.4187 84.8891 46.57C84.2947 46.2001 83.6657 45.8795 82.9899 45.6966C79.9451 44.8725 76.9544 44.8563 73.75 44.75C65.5385 44.1431 61.0047 41.4642 55.625 35.375C55.269 34.9355 54.9404 34.5298 54.6372 34.1537Z" fill="#332E2E"/>
<path d="M37.83 29.2307C39.43 28.7533 40.8724 30.2378 40.3745 31.8317V31.8317C40.1929 32.4131 39.7242 33.1838 39.2174 33.5217C39.1653 33.5565 39.1131 33.5913 39.0609 33.6261C37.8441 34.4373 37.3208 35.9624 37.7832 37.3497C37.8216 37.4648 37.86 37.5801 37.8986 37.6958C37.9661 37.8982 38.0161 38.1065 38.0479 38.3175C38.3739 40.4824 38.4562 41.1459 38.2949 42.6887C38.1368 44.2014 37.5015 45.6411 36.4079 46.6983C34.7531 48.2979 32.9268 49.6267 31 51C30.3716 51.5386 29.7433 52.0772 29.1005 52.6282C28.9088 52.7925 28.7069 52.9412 28.4918 53.0734V53.0734C25.9358 54.6445 23.0784 51.0188 25.2456 48.9441C25.4189 48.7782 25.6073 48.6074 25.8125 48.4297C26.5344 47.9166 27.2563 47.4036 28 46.875C30.3703 44.9326 31.6357 43.8941 32.3977 41.1663C32.527 40.7036 32.5849 40.2234 32.6039 39.7433C32.6634 38.2447 32.7086 36.7455 32.7383 35.2461C32.9793 33.1778 32.9984 33.0141 34.8544 30.9514C35.197 30.5706 35.6069 30.2519 36.0619 30.0166C36.8285 29.6201 37.3356 29.3783 37.83 29.2307Z" fill="#342F2F"/>
<path d="M59.1071 82.7779C59.6578 82.7148 60.2167 82.7149 60.7679 82.7731C61.8223 82.8844 62.4197 82.9644 62.9305 83.1165C64.2909 83.5215 65.3279 84.6844 65.7638 86.0352C66.1996 87.3857 66.2809 88.6986 66.2239 90.1123C66.1485 91.9823 65.4997 94.0901 63.7857 94.8415C63.3487 95.033 62.8401 95.1346 62.0549 95.2447C61.397 95.3369 60.7279 95.3372 60.0691 95.2508C58.6785 95.0685 58.1217 94.9305 57.4244 94.4422C56.516 93.8062 55.8476 92.8686 55.4812 91.822C54.9973 90.4401 54.8161 89.1924 54.8165 87.8097C54.8171 85.9866 55.4866 83.9528 57.146 83.1976C57.6275 82.9785 58.1853 82.8835 59.1071 82.7779Z" fill="#2D2929"/>
<path d="M62.4172 63.3311C62.7391 62.0437 64.0283 61.2571 65.3157 61.5789V61.5789C66.3136 61.8284 67.0574 62.6892 67.1429 63.7143C67.2969 65.5623 67.4512 67.414 67.6068 69.2817C67.8309 71.9703 65.5394 75.1568 62.9071 74.5654V74.5654C60.7181 74.0736 60.3632 71.547 60.9074 69.3704C61.4071 67.3717 61.9091 65.3637 62.4172 63.3311Z" fill="#383333"/>
<path d="M45.5765 57.1177C45.807 55.9648 46.9158 55.229 48.0564 55.5141V55.5141C49.1228 55.7807 49.8305 56.8475 49.6149 57.9254C49.5513 58.2435 49.4875 58.5624 49.4235 58.8823C49.193 60.0352 48.0607 60.7652 46.9201 60.48V60.48C45.8537 60.2134 45.1695 59.1525 45.3851 58.0746C45.4487 57.7565 45.5125 57.4376 45.5765 57.1177Z" fill="#393535"/>
<path d="M78.6466 63.767C78.8521 62.7396 79.7398 62 80.7876 62V62C82.0015 62 83 62.9841 83 64.198C83 64.3809 83 64.5641 83 64.7475C83 65.9915 82.0095 67 80.7655 67V67C79.3441 67 78.2601 65.6996 78.5388 64.3058C78.5747 64.1265 78.6106 63.947 78.6466 63.767Z" fill="#322D2D"/>
</svg>
