<svg width="249" height="70" viewBox="0 0 249 70" fill="none" xmlns="http://www.w3.org/2000/svg">
<g clip-path="url(#clip0_4942_772)">
<path d="M20.8401 0.00808043C21.4756 -0.0430009 22.0843 0.30337 22.4439 0.829736C23.0934 1.78025 23.1681 2.68679 23.2246 4.03855C23.2349 4.27127 23.2453 4.50398 23.2559 4.74375C23.29 5.53583 23.3216 6.32798 23.3526 7.12019C23.3691 7.53093 23.3691 7.53093 23.3859 7.94997C23.6107 13.6854 23.7018 19.4225 23.7756 25.1614C23.7847 25.8631 23.7942 26.5648 23.8038 27.2665C23.8189 28.3799 23.8324 29.4933 23.8446 30.6067C23.8493 31.0227 23.8544 31.4387 23.8599 31.8547C23.8673 32.4259 23.8731 32.997 23.8783 33.5682C23.8819 33.8908 23.8855 34.2134 23.8892 34.5458C23.866 35.223 23.5924 35.895 23.5822 36.5726C23.5766 36.943 23.5748 37.3133 23.5766 37.6856C23.5756 37.8891 23.5747 38.0925 23.5736 38.3021C23.4902 39.1613 23.4798 39.2686 23.7375 39.8343C23.8201 40.0158 23.873 40.2099 23.8831 40.409C23.934 41.4189 23.8745 42.4102 23.7075 43.4041C23.6725 43.6122 23.8942 43.774 24.0787 43.6716C25.3833 42.98 26.5282 42.54 27.981 42.2981C28.9652 42.1002 29.9142 41.8198 30.8733 41.5262C31.0501 41.4738 31.2268 41.4213 31.409 41.3673C32.1249 41.1445 32.7334 40.9445 33.3285 40.4814C34.1175 39.9158 35.0106 39.7911 35.9457 39.5979C37.726 39.2096 37.726 39.2096 39.4661 38.6736C43.5025 37.278 48.4549 37.0658 52.5392 38.323C52.9068 38.3994 53.2749 38.4737 53.6433 38.5461C55.88 39.0335 57.8377 39.7727 59.2598 41.6218C59.9002 42.738 60.038 43.7441 59.9918 44.9597C59.9791 45.2927 59.9019 45.6217 59.7515 45.9191C58.5075 48.38 56.1857 49.6489 53.6953 50.7373C52.6116 51.1402 51.5746 51.3239 50.4841 51.3546C49.6811 51.3772 48.7879 51.0047 48.6537 50.2127C48.555 49.6304 48.9355 49.0676 49.4036 48.7073C50.0212 48.2319 50.6693 47.8087 51.3391 47.3907C51.5833 47.2369 51.8276 47.083 52.0792 46.9245C52.5215 46.6514 52.9665 46.3822 53.4153 46.1198C53.5962 46.0133 53.777 45.9068 53.9634 45.7971C54.0944 45.7224 54.2254 45.6478 54.3592 45.5717C54.4159 45.5394 54.4706 45.5032 54.5204 45.461C54.8279 45.2004 55.0062 44.9354 55.1656 44.6106C55.2721 44.3936 55.1391 44.1379 54.9034 44.0839C54.2052 43.8991 53.5605 43.6292 52.8953 43.3509C48.2828 41.9698 42.9226 43.0579 38.5035 44.5182C37.7307 44.7667 36.9515 44.991 36.1718 45.2168C33.8717 45.885 31.6015 46.6269 29.3372 47.4066C28.9231 47.549 28.9231 47.549 28.5007 47.6942C27.4246 48.0684 26.3576 48.4591 25.2972 48.8695C24.2553 49.2727 23.5392 50.2391 23.461 51.3536C23.374 52.5946 23.3163 53.8351 23.2896 55.0828C23.2853 55.2784 23.2811 55.474 23.2767 55.6755C23.2598 56.4823 23.244 57.2892 23.2305 58.0961C23.1915 60.3375 23.1032 62.5598 22.8636 64.7899C22.844 64.9774 22.8245 65.165 22.8043 65.3582C22.6377 66.7834 22.3574 68.2539 21.5067 69.4078C21.2362 69.7748 20.8312 70.0099 20.3754 69.9995C19.9941 69.9908 19.5954 69.8278 19.3445 69.5405C18.8353 68.9573 18.7298 68.3281 18.5742 67.4552C18.4486 66.2435 18.4642 65.0421 18.48 63.8251C18.4952 62.5447 18.4543 61.2893 18.3602 60.0121C18.2506 58.4589 18.2037 56.9157 18.2002 55.3587C18.199 55.1541 18.1978 54.9495 18.1967 54.7388C18.1998 53.4966 16.915 52.4367 15.795 52.9737C13.0545 54.2877 10.5308 55.9739 8.08525 57.8179C7.94325 57.9239 7.80126 58.0299 7.65496 58.1392C7.35615 58.3655 7.06115 58.5969 6.76938 58.8322C6.20373 59.2713 5.79005 59.558 5.20713 59.7479C4.82761 59.8715 4.41043 59.8762 4.0423 59.7219C3.50351 59.4962 3.2306 59.1417 2.77477 58.5459C2.64347 58.3806 2.51216 58.2153 2.37864 58.0472C2.28682 57.9317 2.20288 57.8097 2.13091 57.6808C1.9343 57.3287 1.81481 57.065 1.77729 56.7656C1.70771 56.2104 2.03546 55.6844 2.45911 55.3187C2.60975 55.1887 2.79224 55.0462 3.12681 54.785C5.60558 52.7196 7.23611 49.6046 7.68092 46.4171C7.71093 46.2021 7.51148 46.0299 7.30118 46.0839C5.46299 46.5077 3.21331 46.9608 1.35813 46.3741C1.12505 46.3004 0.904632 46.1862 0.71765 46.0288C0.64375 45.9665 0.581662 45.9043 0.509039 45.8177C0.188219 45.4351 -0.0691522 44.9426 0.0152105 44.4504C0.0320167 44.3524 0.0635927 44.2529 0.114247 44.1263C0.234702 43.8253 0.419091 43.5518 0.655853 43.3303C2.23424 41.8536 4.23567 41.4124 6.3921 41.3111C6.82908 41.3003 7.26613 41.2924 7.70322 41.2872C7.91338 41.2836 8.12355 41.28 8.34008 41.2763C9.54684 41.2859 10.3382 41.3775 11.3195 42.1477C12.6498 43.5327 12.8929 44.5014 12.8877 46.3708C12.8887 46.7262 12.8887 46.7262 12.8897 47.0889C12.8699 47.4782 12.8262 47.8287 12.7514 48.1835C12.7054 48.4023 12.9396 48.5873 13.1347 48.4783C14.6362 47.6496 16.1429 46.9005 17.7201 46.2273C18.034 46.071 18.2328 45.751 18.2337 45.4003C18.2338 45.3656 18.2339 45.3307 18.234 45.2957C18.2491 39.8628 18.2685 34.4299 18.2925 28.997C18.304 26.3697 18.3141 23.7424 18.3209 21.1151C18.3267 18.8251 18.3353 16.5352 18.347 14.2453C18.3532 13.0328 18.358 11.8203 18.3596 10.6077C18.3611 9.46629 18.3662 8.32492 18.3741 7.1835C18.3763 6.76476 18.3773 6.34601 18.3768 5.92726C18.3764 5.35492 18.3807 4.78279 18.3861 4.21048C18.3873 3.89036 18.3885 3.57024 18.3897 3.24042C18.503 2.24014 18.794 1.46618 19.3909 0.732582C19.5977 0.478409 19.8647 0.275354 20.1717 0.160911C20.4038 0.0744307 20.6173 0.0259904 20.8401 0.00808043Z" fill="#332E2E"/>
<path d="M129.79 0.00785029C130.425 -0.042341 131.031 0.302585 131.406 0.81771C131.915 1.5173 132.088 2.17828 132.121 3.23739C132.135 3.65297 132.135 3.65297 132.15 4.07696C132.163 4.51328 132.163 4.51328 132.177 4.95841C132.195 5.52812 132.213 6.09781 132.233 6.66747C132.241 6.92088 132.248 7.17429 132.256 7.43537C132.296 8.26482 132.296 8.26482 132.433 9.16051C132.587 10.369 132.608 11.5667 132.618 12.7837C132.623 13.1451 132.623 13.1451 132.627 13.5139C132.637 14.3042 132.644 15.0945 132.652 15.8848C132.658 16.4358 132.664 16.9868 132.67 17.5378C132.682 18.6891 132.694 19.8405 132.705 20.9918C132.719 22.47 132.735 23.9481 132.752 25.4262C132.765 26.5623 132.777 27.6983 132.788 28.8344C132.793 29.3797 132.799 29.925 132.806 30.4703C132.814 31.2298 132.821 31.9894 132.828 32.7489C132.831 32.9754 132.834 33.2019 132.837 33.4352C132.843 34.2959 132.845 34.6799 132.798 34.9478C132.723 35.3743 132.553 35.782 132.543 36.215C132.531 36.7243 132.527 37.2321 132.53 37.7436C132.529 37.9461 132.528 38.1487 132.527 38.3573C132.444 39.2119 132.434 39.3184 132.691 39.881C132.774 40.0612 132.827 40.254 132.837 40.4519C132.882 41.3412 132.841 42.2161 132.717 43.0911C132.667 43.4397 133.041 43.7088 133.348 43.5349C134.812 42.8041 136.389 42.4673 137.967 42.0682C138.747 41.8661 139.52 41.6424 140.293 41.413C140.553 41.3363 140.813 41.2597 141.081 41.1807C141.804 40.946 141.804 40.946 142.403 40.5365C143.308 40.0262 144.205 39.851 145.217 39.6421C146.709 39.3291 148.077 38.9152 149.499 38.3658C154.807 36.7455 161.492 37.4433 166.437 39.8974C167.76 40.7271 168.536 41.8209 168.894 43.3255C169.09 44.7043 169.09 45.887 168.233 47.0447C166.104 49.4756 163.186 51.0795 159.957 51.4161C159.163 51.4652 158.854 51.4843 158.585 51.3968C158.169 51.2615 157.842 50.9028 157.708 50.4863C157.684 50.4117 157.666 50.3382 157.654 50.2637C157.557 49.6669 157.91 49.0757 158.401 48.7236C158.521 48.6379 158.673 48.5358 158.898 48.3848C159.152 48.2114 159.406 48.038 159.668 47.8594C160.279 47.461 160.895 47.0719 161.513 46.6848C161.675 46.5825 161.838 46.4803 162.005 46.3749C162.325 46.1751 162.647 45.9778 162.97 45.7831C163.949 45.1961 163.419 43.9179 162.306 43.6643C155.334 42.0757 148.956 43.9373 142.121 46.2311C141.713 46.3671 141.305 46.5031 140.897 46.6391C138.69 47.3771 136.492 48.1371 134.31 48.9416C133.237 49.337 132.488 50.318 132.42 51.4592C132.336 52.8806 132.306 54.2978 132.326 55.7332C132.361 58.3917 132.272 60.9938 131.968 63.6367C131.938 63.906 131.908 64.1753 131.877 64.4527C131.382 68.3894 131.343 68.6995 130.502 69.4918C130.348 69.6368 130.178 69.7667 129.991 69.8661C129.817 69.9591 129.707 69.9927 129.524 69.9989C129.22 70.0092 128.909 69.956 128.64 69.8132C128.476 69.7262 128.373 69.6195 128.204 69.3812C128.026 69.1304 127.896 68.8475 127.821 68.5492C127.377 66.782 127.363 65.0811 127.379 63.2369C127.38 62.9115 127.38 62.5862 127.381 62.2509C127.384 61.3936 127.388 60.5363 127.394 59.679C127.399 58.8011 127.401 57.9232 127.404 57.0453C127.407 56.2727 127.41 55.5001 127.413 54.7275C127.42 53.4101 126.055 52.5335 124.862 53.0922C124.622 53.2034 124.382 53.3146 124.135 53.4292C121.625 54.6078 119.363 56.0333 117.219 57.7847C117.059 57.9145 116.899 58.0443 116.734 58.1781C116.431 58.4273 116.132 58.6808 115.837 58.9393C115.23 59.4446 114.796 59.7043 114.127 59.8616C113.82 59.934 113.497 59.9333 113.19 59.8561C112.545 59.6936 112.287 59.4415 111.791 58.7708C111.472 58.3073 111.24 57.9166 111.046 57.4765C110.806 56.9303 110.791 56.2916 111.103 55.7823C111.538 55.0691 112.176 54.6175 112.921 53.9976C113.809 53.2178 114.326 52.4283 114.854 51.3842C114.989 51.1222 115.124 50.8603 115.263 50.5905C115.951 49.1895 116.481 47.9756 116.621 46.4719C116.642 46.249 116.433 46.0797 116.216 46.1353C114.559 46.5168 112.838 46.7504 111.139 46.6075C110.711 46.5715 110.297 46.4245 109.949 46.174C109.682 45.9826 109.482 45.7988 109.321 45.5469C109.031 45.095 109.04 44.5054 109.29 44.0305C109.677 43.2972 110.292 42.8217 111.055 42.3273C111.192 42.2383 111.337 42.1619 111.488 42.1007C113.694 41.2089 116.503 40.7332 118.841 41.3158C119.146 41.3917 119.429 41.5357 119.678 41.7271C120.563 42.4083 121.286 43.1637 121.677 44.2256C121.73 44.3694 121.754 44.5233 121.76 44.6763C121.847 46.8865 121.864 47.4605 121.725 48.0984C121.665 48.3726 121.947 48.6021 122.193 48.4676C123.705 47.6489 125.187 46.8483 126.79 46.2491C127.169 46.1076 127.428 45.7504 127.427 45.3462C127.41 39.9073 127.397 34.4683 127.389 29.0293C127.385 26.3991 127.38 23.7689 127.371 21.1386C127.363 18.8462 127.358 16.5537 127.357 14.2612C127.356 13.0473 127.353 11.8335 127.348 10.6196C127.342 9.47688 127.341 8.33423 127.342 7.19152C127.342 6.7723 127.34 6.35308 127.337 5.93388C127.333 5.36091 127.334 4.78814 127.336 4.21518C127.336 3.8947 127.335 3.57422 127.334 3.24403C127.444 2.24062 127.735 1.46717 128.334 0.732537C128.542 0.478717 128.809 0.275921 129.115 0.161525C129.35 0.0742872 129.565 0.0256151 129.79 0.00785029Z" fill="#332E2E"/>
<path d="M107.885 0.17559C108.13 0.248936 108.37 0.358471 108.558 0.532189C108.612 0.582303 108.654 0.632306 108.696 0.698629C108.853 0.946199 108.929 1.23749 108.961 1.52904C109.079 2.58321 108.945 3.44828 108.312 4.38293C108.178 4.56803 108.043 4.75313 107.904 4.94383C107.264 5.8661 106.727 6.83746 106.177 7.81757C105.432 9.13064 104.681 10.3963 103.757 11.5876C103.471 11.9569 103.213 12.3482 102.958 12.74C102.562 13.3468 102.153 13.9193 101.72 14.4969C101.265 15.1082 100.902 15.668 100.544 16.3488C99.9831 17.4035 99.2042 18.2781 98.4454 19.1855C97.8259 19.932 97.2638 20.6816 96.7519 21.5086C96.0614 22.6127 95.2355 23.5417 94.3667 24.5021C93.7977 25.1471 93.2686 25.8116 92.7436 26.4944C91.929 27.5473 91.1009 28.503 90.0876 29.3632C89.1115 30.1981 88.423 30.8626 87.9281 32.052C87.8814 32.1643 87.7745 32.2399 87.6529 32.2399C87.491 32.2399 87.358 32.3712 87.358 32.5332C87.358 32.5456 87.358 32.558 87.358 32.5705C87.358 32.6805 87.3033 32.7833 87.212 32.8446C86.9124 33.0458 86.6119 33.2456 86.3085 33.4409C85.8352 33.7864 85.4665 34.166 85.0676 34.5983C84.2053 35.5136 83.2488 36.2032 82.2161 36.9052C81.6674 37.2762 81.6674 37.2762 81.2798 37.7045C80.7395 38.2451 80.1003 38.4917 79.4188 38.8085C78.9095 39.0941 78.589 39.4032 78.1962 39.8373C75.8973 42.0121 72.4065 43.8367 69.2011 43.9921C69.0592 43.999 68.9169 43.9925 68.7761 43.9733C68.6691 43.9587 68.5695 43.9432 68.4752 43.9261C67.5291 43.7547 66.7847 42.7657 67.1386 41.8718C67.1854 41.7535 67.2459 41.6325 67.3226 41.504C67.4343 41.3171 67.582 41.1543 67.7507 41.0165C68.5275 40.382 69.4234 39.9427 70.3064 39.4723C71.1818 38.9849 71.99 38.424 72.8038 37.837C73.1062 37.6453 73.2008 37.5854 73.3911 37.5666C73.5825 37.5477 73.7391 37.404 73.7391 37.2117C73.7391 37.1111 73.7826 37.0135 73.8585 36.9475C74.1127 36.7267 74.1678 36.6879 74.6184 36.371C74.8056 36.237 74.9929 36.1031 75.1858 35.965C75.3876 35.8222 75.5895 35.6793 75.7974 35.5321C77.6359 34.2048 79.2884 32.8134 80.92 31.2269C81.2384 30.9456 81.5581 30.6658 81.8795 30.3881C84.0279 28.4762 86.0114 26.3543 87.8532 24.1361C88.1825 23.7554 88.5127 23.3756 88.8437 22.9965C92.2302 19.14 92.2302 19.14 95.2739 15.0034C95.6785 14.4051 96.0911 13.8169 96.512 13.2307C97.9607 11.2111 99.3416 9.18146 100.613 7.04034C101.332 5.84228 102.136 4.76313 103.022 3.68651C103.463 3.10359 103.788 2.52058 104.118 1.86631C104.959 0.249582 106.207 -0.325895 107.885 0.17559Z" fill="#332E2E"/>
<path d="M217.201 0.00241435C217.612 0.0140176 218.021 0.133868 218.352 0.377515C218.566 0.534355 218.723 0.703457 218.849 0.955674C218.971 1.20099 219.005 1.4802 218.996 1.75419C218.947 3.22184 218.449 4.17655 217.55 5.44518C217.091 6.09997 216.694 6.77201 216.303 7.46922C214.849 10.0281 213.116 12.426 211.41 14.8194C210.827 15.6387 210.268 16.4722 209.712 17.3104C209.218 17.9976 208.704 18.6685 208.191 19.3413C208.093 19.4697 207.996 19.598 207.895 19.7302C207.566 20.1616 207.237 20.5925 206.908 21.0232C206.803 21.1598 206.699 21.2965 206.592 21.4373C205.879 22.3663 205.141 23.2682 204.389 24.1648C204.18 24.4213 203.971 24.6779 203.755 24.9422C203.121 25.688 203.121 25.688 202.472 26.3226C201.828 26.9392 201.828 26.9392 201.379 27.7189C200.813 28.5185 200.304 28.891 199.507 29.4246C198.616 30.0819 197.98 30.9277 197.466 31.9077C196.929 32.7045 196.286 33.1397 195.51 33.6937C194.967 34.079 194.967 34.079 194.393 34.6843C193.529 35.5495 192.591 36.3292 191.587 37.0257C191.506 37.0822 191.41 37.1119 191.311 37.1119C191.099 37.1119 190.91 37.2476 190.843 37.4487C190.825 37.5033 190.806 37.558 190.788 37.613C190.732 37.781 190.617 37.9235 190.464 38.0126C190.13 38.2075 190.034 38.2506 189.466 38.5082C188.627 38.8901 188.022 39.217 187.406 39.9044C185.46 41.7074 183.189 42.7423 180.672 43.519C180.42 43.5907 180.272 43.6327 180.149 43.6767C179.735 43.8246 179.321 43.981 178.882 43.9911C178.639 43.9966 178.397 43.9987 178.154 43.998C177.906 43.9987 177.658 43.9993 177.402 44C177.349 43.9972 177.3 43.9946 177.255 43.9922C176.586 43.9551 176.112 43.4109 176.041 42.7447C175.99 42.2605 176.134 41.7066 176.468 41.3522C177.439 40.3206 178.962 39.5338 180.182 39.0318C181.398 38.4883 182.321 37.6929 183.351 36.8581C183.919 36.4106 184.49 35.9677 185.062 35.5253C185.199 35.4176 185.337 35.3099 185.479 35.1989C186.069 34.741 186.651 34.3162 187.299 33.9426C188.04 33.4783 188.57 32.9139 189.181 32.2885C189.594 31.9262 190.016 31.5747 190.438 31.2227C192.111 29.8283 193.603 28.3715 195.01 26.7034C195.327 26.3379 195.643 25.973 195.961 25.6086C196.103 25.445 196.245 25.2814 196.392 25.1128C196.922 24.5192 197.49 23.9662 198.052 23.4032C198.431 22.9737 198.801 22.5378 199.171 22.1001C199.574 21.6249 199.984 21.1572 200.397 20.69C200.714 20.3255 201.031 19.9605 201.347 19.5952C201.538 19.3763 201.729 19.1573 201.925 18.9318C203.261 17.3677 204.46 15.7533 205.609 14.0472C206.42 12.8434 207.262 11.6685 208.128 10.5036C209.08 9.21877 209.965 7.91255 210.806 6.55088C211.424 5.58922 212.111 4.68292 212.793 3.7663C213.231 3.1361 213.581 2.50902 213.926 1.82462C214.247 1.22595 214.437 0.939151 214.858 0.589826C215.113 0.37779 215.417 0.231098 215.74 0.154891C216.241 0.0367319 216.695 -0.0118345 217.201 0.00241435Z" fill="#332E2E"/>
<path d="M80.642 42.0034C80.8474 42.0093 81.0535 42.0362 81.2449 42.111C82.0211 42.4142 82.4194 43.0217 82.8902 43.7352C82.9949 43.8938 83.1156 44.0414 83.2494 44.1765C83.3822 44.3106 83.5159 44.4456 83.6522 44.5834C85.4834 46.5278 85.8993 46.9695 85.9938 47.5238C86.0501 47.8544 86.2315 48.1553 86.5485 48.2648C86.6881 48.3131 86.8143 48.4007 86.9068 48.516C87.2169 48.9026 87.2678 48.9777 87.694 49.6077C87.9546 49.9901 87.9546 49.9901 88.2205 50.3803C88.3942 50.6392 88.568 50.8981 88.747 51.1648C88.9054 51.3972 89.0638 51.6296 89.2271 51.8691C91.3438 54.9806 91.3437 54.9806 91.7048 55.8039C91.9588 56.3515 91.9588 56.3515 92.5255 56.8082C93.4703 57.7713 93.9254 59.0142 94.4612 60.2504C94.67 60.7236 94.8793 61.1965 95.0894 61.669C95.189 61.8934 95.2886 62.1177 95.3912 62.3488C95.6554 62.9165 95.9382 63.4597 96.245 64.0036C97.0161 65.3885 97.0752 67.0332 96.9473 68.6137C96.9327 68.7946 96.8516 69.058 96.7795 69.2245C96.562 69.7269 96.1124 69.9949 95.5649 69.9999C95.163 70.0035 94.7958 69.9285 94.4034 69.689C94.2707 69.6081 94.1539 69.5039 94.0466 69.3914C93.365 68.6765 92.9533 68.0397 92.5795 67.1268C92.4997 66.9319 92.4067 66.7422 92.2902 66.5667C92.1009 66.2816 91.9053 66.0009 91.7048 65.7242C90.9408 64.6243 90.3102 63.495 89.6916 62.3051C88.7826 60.57 87.7236 59.021 86.5581 57.4619C85.9239 56.6095 85.3479 55.7882 84.8756 54.8247C84.2382 53.5305 83.315 52.4791 82.4095 51.3825C78.4459 46.5516 78.2138 46.2687 78.0338 44.6998C78.0103 44.4948 78.0096 44.2871 78.0313 44.0819C78.0676 43.7383 78.0951 43.5567 78.1602 43.3574C78.3045 42.9151 78.6073 42.5272 79.0172 42.307C79.5247 42.0343 79.9964 41.9851 80.642 42.0034Z" fill="#332E2E"/>
<path d="M194.116 41.026C194.274 41.0025 194.435 41.0053 194.593 41.0248C195.07 41.0831 195.311 41.1807 195.693 41.4643C195.875 41.5996 196.034 41.7646 196.174 41.9431C196.298 42.1003 196.364 42.1842 196.581 42.461C196.89 42.8148 197.199 43.168 197.509 43.5207C199.213 45.5307 200.814 47.6121 202.365 49.7501C202.492 49.9243 202.619 50.0985 202.749 50.2779C204.1 52.1533 204.408 52.5816 204.478 53.0463C204.52 53.3195 204.671 53.5666 204.933 53.6569C205.125 53.7236 205.278 53.8782 205.34 54.0725C205.498 54.5649 205.544 54.7284 205.644 55.1596C205.701 55.4021 205.879 55.5839 206.125 55.6216C206.162 55.6274 206.218 55.6397 206.254 55.6523C206.593 55.7723 206.694 55.8132 206.823 55.9704C206.954 56.1295 207.045 56.3169 207.125 56.5065C207.157 56.5816 207.189 56.6574 207.221 56.734C207.302 56.9195 207.384 57.1049 207.467 57.296C207.549 57.4867 207.631 57.6775 207.716 57.874C207.884 58.2226 208.054 58.5705 208.226 58.9175C208.541 59.5672 208.827 60.2195 209.092 60.8923C209.361 61.5226 209.638 61.9846 210.006 62.5012C210.127 62.6709 210.236 62.8495 210.315 63.0421C210.932 64.5469 211.084 66.2005 210.96 67.8297C210.944 68.0399 210.875 68.2394 210.761 68.4168C210.556 68.7354 210.225 68.9658 209.847 68.9914C209.216 69.0341 208.773 68.9229 208.163 68.5598C207.997 68.4612 207.845 68.3405 207.715 68.198C207.153 67.5813 206.84 66.9038 206.495 66.1052C206.212 65.5416 205.886 65.1335 205.473 64.6653C204.753 63.8369 204.411 63.0232 204.004 61.9841C203.168 60.3978 202.203 58.9105 201.187 57.4435C200.788 56.8464 200.788 56.8464 200.396 56.145C200.362 56.0745 200.331 56.0121 200.303 55.9565C200.003 55.3592 199.373 54.9849 199.108 54.3709C198.603 53.2836 197.977 52.4195 197.231 51.5001C196.969 51.1671 196.708 50.8336 196.448 50.4996C196.31 50.3233 196.173 50.1469 196.031 49.9652C195.231 48.9306 194.447 47.8842 193.674 46.828C193.52 46.6254 193.367 46.4228 193.209 46.2141C192.616 45.3966 192.254 44.86 192.069 43.9519C192.013 43.6725 192.016 43.3831 192.083 43.1059C192.354 41.9792 192.974 41.1959 194.116 41.026Z" fill="#332E2E"/>
<path d="M244.332 27.1171C244.58 26.2937 245.548 26.0008 246.364 26.2731C246.789 26.4152 247.196 26.6032 247.587 26.8231C248.51 27.342 248.939 28.4283 248.717 29.4638C248.237 31.7109 247.351 33.7018 245.773 35.5677C244.893 36.7021 244.748 37.5232 244.786 38.9348C244.834 41.9288 243.61 43.9551 241.905 46.3901C241.301 47.3351 241.31 48.1959 241.266 49.2786C241.152 50.9485 240.776 52.2153 240.03 53.7119C239.831 54.1459 239.633 54.5802 239.436 55.0148C239.172 55.5813 238.53 55.8696 237.936 55.6735C237.463 55.5173 236.999 55.3516 236.539 55.1681C235.574 54.7823 234.878 53.817 235.156 52.815C235.281 52.3617 235.482 51.9196 235.759 51.3919C236.506 49.8785 236.783 48.4584 236.979 46.7998C237.245 44.6359 237.866 43.2619 239.238 41.5085C240.243 40.0119 240.327 38.7287 240.343 36.9958C240.374 34.8657 240.954 33.7052 242.344 32.0749C243.526 30.595 243.906 28.9511 244.318 27.1629C244.323 27.1473 244.327 27.132 244.332 27.1171Z" fill="#241918"/>
<path d="M230.66 57.4006C230.921 57.4887 231.162 57.6271 231.371 57.8064C232.373 58.6657 232.851 59.5487 232.997 60.7963C233.036 62.3033 232.674 63.4381 231.858 64.7051C231.7 64.9516 231.497 65.1677 231.26 65.3392C229.946 66.287 228.379 66.9128 226.617 67C225.768 66.9447 225.039 66.8055 224.375 66.4175C224.082 66.2466 223.847 65.9882 223.715 65.676C223.352 64.8168 223.401 63.8778 223.377 62.959C223.448 62.2477 222.944 61.5854 223.022 60.8748C223.108 60.0817 223.454 59.4048 224.044 58.5975C225.623 56.9308 228.392 56.6352 230.66 57.4006Z" fill="#332E2E"/>
<path d="M239.121 53.3385C239.197 53.1504 239.4 53.0461 239.594 53.1057C239.809 53.1721 239.923 53.4116 239.833 53.6186C239.66 54.0141 239.484 54.4077 239.305 54.8003C238.989 55.4927 238.209 55.8502 237.486 55.6134C236.76 55.3756 236.053 55.1107 235.354 54.7857C235.136 54.6842 235 54.4667 235 54.2259C235 53.7629 235.48 53.4523 235.9 53.6463C236.028 53.7053 236.156 53.7644 236.284 53.8235C236.422 53.8872 236.528 54.0016 236.58 54.1446C236.677 54.4129 236.958 54.5699 237.237 54.5089C237.272 54.5012 237.308 54.4934 237.344 54.4856C237.471 54.4661 237.573 54.4503 237.659 54.4393C238.151 54.3763 238.693 54.2845 238.904 53.8358C238.98 53.673 239.052 53.5084 239.121 53.3385Z" fill="#2B2320"/>
<path d="M240.424 49.1544C240.475 48.7217 240.958 48.6224 240.988 49.0571C241.006 49.3208 240.99 49.6158 240.99 49.9886C240.994 50.264 240.997 50.5394 241 50.8232C240.947 51.4613 240.827 51.929 240.627 52.429C240.529 52.6709 240.198 52.6805 240.073 52.4518C240.071 52.4488 240.07 52.4458 240.068 52.4428C240.025 52.364 240.02 52.2699 240.054 52.1868C240.076 52.1328 240.098 52.0786 240.121 52.024C240.155 51.9399 240.256 51.9057 240.333 51.9531C240.432 52.0132 240.559 51.943 240.559 51.8276C240.559 51.8183 240.559 51.8091 240.559 51.7998C240.559 51.7096 240.486 51.6364 240.396 51.6364C240.385 51.6364 240.375 51.6364 240.364 51.6364C240.264 51.6364 240.179 51.5595 240.17 51.4591C240.12 50.9096 240.07 50.3588 240.019 49.7958C240.009 49.6858 240.094 49.5909 240.204 49.5909C240.3 49.5909 240.381 49.5196 240.392 49.4249C240.403 49.3348 240.413 49.2447 240.424 49.1544Z" fill="#1D1613"/>
<path d="M240.107 39.3738C240.164 39.2256 240.367 39.2089 240.445 39.3475C240.479 39.4065 240.542 39.4444 240.61 39.4444C240.666 39.4444 240.721 39.4444 240.778 39.4444C240.9 39.4444 241 39.5423 241 39.665C241 39.7877 240.9 39.8889 240.778 39.8889C240.763 39.8889 240.749 39.8889 240.734 39.8889C240.6 39.8889 240.487 39.9886 240.471 40.1215C240.412 40.5907 240.353 41.0612 240.294 41.5399C240.269 41.7393 240.099 41.8889 239.898 41.8889C239.855 41.8889 239.812 41.8889 239.769 41.8889C239.621 41.8889 239.5 42.0078 239.5 42.1566C239.5 42.263 239.437 42.3612 239.34 42.4044C239.287 42.4278 239.235 42.4512 239.182 42.4746C238.746 42.6683 238.311 42.2402 238.589 41.8521C238.701 41.6947 238.83 41.5382 238.984 41.375C239.546 40.7242 239.822 40.1068 240.107 39.3738Z" fill="#2D2524"/>
<path d="M244.291 29.1513C244.317 29.0624 244.396 29 244.489 29C244.59 29 244.678 29.0742 244.692 29.1744C244.765 29.662 244.837 30.1503 244.91 30.6458C244.958 30.9641 244.715 31.25 244.393 31.25C244.162 31.25 243.954 31.4009 243.885 31.622C243.841 31.7673 243.796 31.9137 243.75 32.0625C243.357 32.9457 243.031 33.3349 242.164 33.8961C242.06 33.9632 241.932 33.9831 241.812 33.9531C241.72 33.9299 241.627 33.9068 241.534 33.8836C241.304 33.826 241.229 33.5361 241.402 33.374C242.779 32.0502 243.811 30.799 244.291 29.1513Z" fill="#38302F"/>
<path d="M195.354 26.2547C195.434 26.1139 195.612 26.0658 195.751 26.1479C195.888 26.2286 195.937 26.4055 195.859 26.544C195.733 26.7663 195.607 26.9894 195.479 27.2155C195.386 27.3799 195.362 27.5725 195.413 27.7542C195.468 27.9482 195.44 28.16 195.327 28.3268C195.044 28.7441 194.836 28.9359 194.409 28.9956C194.387 28.9987 194.364 28.9984 194.342 28.9951C194.172 28.9701 194.075 28.7881 194.149 28.6337C194.256 28.4121 194.362 28.1907 194.469 27.9693C194.556 27.7883 194.643 27.6072 194.732 27.4206C194.933 27.0173 195.14 26.6325 195.354 26.2547Z" fill="#332E2E"/>
<path d="M93.2087 18.3175C93.3475 18.1491 93.5995 18.1329 93.7538 18.2872C93.8909 18.4243 93.8991 18.6467 93.7704 18.7916C93.4634 19.1369 93.3887 19.221 92.9583 19.7052C92.7257 19.9919 92.6406 20.0967 92.6286 20.3332C92.6144 20.6157 92.3671 20.8335 92.0987 20.744C91.9582 20.6972 91.8005 20.7328 91.6957 20.8375C91.3589 21.1743 91.0211 21.5122 90.6763 21.857C90.5909 21.9424 90.462 21.9644 90.354 21.9103C90.1815 21.8241 90.1438 21.5927 90.2817 21.4579C90.3274 21.4132 90.3733 21.3683 90.4197 21.3229C91.402 20.3534 92.3348 19.3778 93.2087 18.3175Z" fill="#1C1C1C"/>
<path d="M20.625 68.1809C20.625 68.081 20.7046 68 20.8045 68C20.9094 68 20.9937 68.0898 20.9863 68.1944C20.9161 69.1904 20.8966 69.3443 20.7177 69.7623C20.6615 69.8935 20.5076 69.9904 20.3651 69.9981C20.1457 70.0101 20.0195 69.7975 20.0437 69.5791C20.0608 69.4245 20.078 69.2692 20.0954 69.1124C20.114 68.945 20.2119 68.7968 20.3586 68.7141C20.3869 68.6981 20.4153 68.6821 20.4438 68.666C20.5557 68.6029 20.625 68.4844 20.625 68.3559C20.625 68.2979 20.625 68.2396 20.625 68.1809Z" fill="#161616"/>
<path d="M74.2812 37.0597C74.3571 37.0213 74.4441 37.0147 74.5249 37.0416C74.7466 37.1155 74.8187 37.3944 74.6593 37.5653C74.6293 37.5976 74.5991 37.6299 74.5687 37.6625C74.1885 38.0665 74.0979 38.1627 73.9571 38.4542C73.8532 38.6692 73.6627 38.832 73.429 38.8813C73.2056 38.9285 73.0897 38.946 72.8415 38.9737C72.7126 38.9881 72.6 38.8869 72.6 38.7572C72.6 38.7399 72.6 38.7226 72.6 38.7053C72.6 38.6424 72.5607 38.5869 72.5011 38.567C72.3606 38.5202 72.37 38.3178 72.5146 38.2856C72.5882 38.2693 72.662 38.2529 72.7363 38.2364C72.8319 38.2151 72.9 38.1303 72.9 38.0324C72.9 38.0111 72.9 37.9897 72.9 37.9683C72.9 37.8643 72.9558 37.7682 73.0466 37.7174C73.4499 37.4915 73.8614 37.2718 74.2812 37.0597Z" fill="#332E2E"/>
<path d="M242.076 33.0976C242.241 33.0348 242.422 33.0379 242.584 33.1075C242.835 33.215 243 33.4628 243 33.7358C243 33.7957 243 33.8557 243 33.9157C243 34.377 242.668 34.7713 242.213 34.8492C242.181 34.8548 242.148 34.8603 242.116 34.8658C241.676 34.9412 241.255 34.6665 241.154 34.2323C241.065 33.849 241.247 33.4408 241.608 33.284C241.737 33.228 241.867 33.177 242.076 33.0976Z" fill="#211311"/>
<path d="M158.009 49.8267C157.985 49.5213 158.339 49.3585 158.522 49.6037C158.567 49.6631 158.618 49.772 158.618 49.8463C158.618 49.8601 158.618 49.874 158.618 49.8878C158.618 50.0868 158.744 50.2641 158.931 50.3304C159.251 50.4434 159.573 50.5569 159.901 50.6727C159.96 50.6937 160 50.7491 160 50.8121C160 50.8903 159.939 50.956 159.861 50.9614C158.841 51.0322 158.729 51.0276 158.361 50.7563C158.278 50.6951 158.211 50.6138 158.172 50.5184C158.073 50.2753 158.026 50.0557 158.009 49.8267Z" fill="#202020"/>
<path d="M107.788 0.0216383C107.908 0.0319343 108 0.132481 108 0.253641C108 0.34847 107.943 0.435548 107.856 0.472512C107.639 0.564084 107.591 0.584417 107.29 0.711956C106.56 1.11771 106.353 1.29302 105.89 2.19531C105.868 2.23807 105.808 2.30683 105.772 2.33967C105.498 2.59669 105.117 2.3253 105.213 1.96149C105.344 1.46024 105.513 1.06052 105.805 0.617139C105.865 0.526052 105.941 0.44685 106.033 0.387184C106.639 -0.0093047 107.15 -0.0327724 107.788 0.0216383Z" fill="#282828"/>
<path d="M242.152 43.1549C242.293 43.0671 242.478 43.0976 242.582 43.227C242.638 43.2976 242.695 43.3684 242.752 43.4396C242.903 43.6293 242.933 43.8893 242.828 44.1084C242.731 44.3095 242.634 44.5114 242.536 44.7157C242.464 44.8673 242.277 44.9229 242.134 44.8338C242.052 44.7822 242 44.6909 242 44.5936C242 44.2094 242 43.8242 242 43.431C242 43.3184 242.057 43.2146 242.152 43.1549Z" fill="#2D2022"/>
<path d="M244.521 26.2867C244.628 26.0816 244.886 26.0224 245.113 26.065C245.287 26.0975 245.46 26.132 245.633 26.1687C245.82 26.2085 245.918 26.4131 245.833 26.5845C245.783 26.6848 245.679 26.75 245.567 26.75C245.424 26.75 245.281 26.75 245.137 26.75C244.808 26.75 244.56 27.0517 244.625 27.375C244.643 27.4648 244.661 27.5548 244.679 27.6453C244.716 27.8288 244.578 28 244.391 28C244.195 28 244.051 27.8129 244.103 27.6243C244.327 26.8036 244.422 26.4762 244.521 26.2867Z" fill="#4A4344"/>
<path d="M246 34C246 34.0943 246 34.1886 246 34.2857C246 34.8514 246 35.4171 246 36L-nan -nanC-nan -nan -nan -nan -nan -nanL-nan -nanC-nan -nan -nan -nan -nan -nanL246 36C246 34.9951 246 34.7511 246 34Z" fill="#E1DFDE"/>
<path d="M235 54.1234C235 53.5941 235.541 53.232 236.028 53.4405C236.105 53.4735 236.182 53.5064 236.259 53.5394C236.652 53.7082 236.812 54.1794 236.596 54.5495C236.441 54.8157 236.13 54.9564 235.828 54.8918C235.747 54.8743 235.665 54.8568 235.583 54.8392C235.243 54.7663 235 54.4711 235 54.1234Z" fill="#342D2C"/>
<path d="M235.623 53.1447C235.752 53.0506 235.908 53 236.068 53C236.112 53 236.155 53 236.199 53C236.443 53 236.661 53.155 236.74 53.3858C236.765 53.458 236.79 53.5304 236.814 53.603C236.905 53.8675 236.712 54.1429 236.432 54.1429C236.298 54.1429 236.169 54.209 236.093 54.3196C236.034 54.4059 235.974 54.4925 235.914 54.5801C235.854 54.6674 235.733 54.7468 235.633 54.783C235.316 54.8983 235.001 54.6657 235 54.3283C235 54.2166 235.004 54.1035 235.013 53.9451C235.027 53.7085 235.148 53.4908 235.339 53.3513C235.433 53.2828 235.528 53.214 235.623 53.1447Z" fill="#1B1312"/>
<path d="M158.075 49.1578C158.115 49.0623 158.207 49 158.31 49C158.414 49 158.51 49.0636 158.549 49.1606C158.578 49.2347 158.608 49.3092 158.639 49.3848C158.65 49.4128 158.671 49.4349 158.699 49.4465C158.798 49.4874 158.789 49.6298 158.687 49.6582C158.64 49.6711 158.594 49.684 158.547 49.697C158.507 49.7081 158.472 49.7341 158.451 49.7697C158.45 49.772 158.448 49.7742 158.447 49.7764C158.382 49.8849 158.227 49.896 158.15 49.7953C157.979 49.571 157.98 49.5164 158.026 49.2933C158.031 49.2705 158.038 49.2481 158.046 49.2266C158.056 49.2037 158.065 49.1808 158.075 49.1578Z" fill="#332E2E"/>
<path d="M163.259 45.215C163.584 44.9783 163.906 45.3748 163.809 45.765C163.771 45.9142 163.679 46.0473 163.551 46.1326C163.493 46.1713 163.447 46.202 163.371 46.2528C163.292 46.3051 163.233 46.3796 163.199 46.4679C163.098 46.7392 162.769 46.8463 162.528 46.6855C162.519 46.6796 162.51 46.6736 162.501 46.6677C162.246 46.4972 162.217 46.1314 162.443 45.9232C162.828 45.568 163.074 45.3495 163.259 45.215Z" fill="#232323"/>
<path d="M22.7126 39.0862C22.9 39.03 23.0999 39.03 23.2873 39.0862C23.3418 39.1026 23.3964 39.1189 23.4511 39.1354C23.7769 39.2331 24 39.5329 24 39.873C24 40.1119 24 40.3512 24 40.5914C24 41.0684 23.4052 41.2863 23.0999 40.9199C23.0358 40.843 22.9488 40.7847 22.853 40.7559C22.7604 40.7281 22.6677 40.7003 22.5747 40.6724C22.2336 40.5701 22 40.2606 22 39.9045C22 39.5484 22.2335 39.2299 22.5746 39.1276C22.6205 39.1138 22.6665 39.1 22.7126 39.0862Z" fill="#2C2C2C"/>
<path d="M245.333 34.4197C245.333 34.2166 245.534 34.0751 245.724 34.1464C245.875 34.203 245.953 34.3725 245.896 34.5232C245.745 34.918 245.595 35.3142 245.441 35.7172C245.387 35.8588 245.214 35.9102 245.092 35.8193C245.035 35.7762 245 35.7078 245 35.636C245 35.5633 245 35.4903 245 35.4167C245 35.3246 245.073 35.25 245.165 35.25C245.257 35.25 245.333 35.1754 245.333 35.0833C245.333 34.8632 245.333 34.6426 245.333 34.4197Z" fill="#27221F"/>
<path d="M192.286 30.5299C192.487 30.3006 192.861 30.3809 192.946 30.6734C192.98 30.7877 192.96 30.9143 192.887 31.008C192.746 31.1866 192.611 31.33 192.473 31.4468C192.058 31.797 191.694 31.2071 192.051 30.7987C192.13 30.7091 192.208 30.6195 192.286 30.5299Z" fill="#332E2E"/>
<path d="M225.194 58.1865C225.334 58.0719 225.529 58.0585 225.685 58.1495C225.867 58.2557 225.951 58.4768 225.882 58.6762C225.783 58.9662 225.683 59.2572 225.582 59.5516C225.49 59.8198 225.242 60 224.959 60C224.496 60 224.154 59.5293 224.374 59.1225C224.567 58.7653 224.791 58.5177 225.194 58.1865Z" fill="#151515"/>
<path d="M182.015 38.1503C182.162 38.056 182.412 38.0581 182.57 38.1345C182.892 38.2911 182.659 38.7006 182.313 38.7936C182.068 38.8594 181.821 38.9222 181.574 38.9822C181.526 38.9939 181.476 38.9905 181.43 38.9722C181.251 38.9002 181.227 38.6549 181.39 38.5505C181.597 38.4181 181.805 38.285 182.015 38.1503Z" fill="#332E2E"/>
</g>
<defs>
<clipPath id="clip0_4942_772">
<rect width="249" height="70" fill="white"/>
</clipPath>
</defs>
</svg>
