<svg width="155" height="155" viewBox="0 0 155 155" fill="none" xmlns="http://www.w3.org/2000/svg">
<path d="M68.8957 42.0067C65.9039 38.1584 70.4448 34.3183 73.9831 37.6711C75.5435 39.1496 76.9856 40.9007 78.6655 42.741C83.375 47.0295 87.7811 48.1402 94.0495 47.953C95.0701 47.9297 96.0908 47.9064 97.1424 47.8824V47.8824C98.3715 47.8342 99.2795 46.7187 99.0773 45.5054C99.0036 45.0635 98.9299 44.6208 98.8559 44.177C98.5076 42.0873 100.253 40.1973 102.242 40.9276C102.307 40.9515 102.374 40.9762 102.443 41.0018C103.025 41.2169 103.538 41.5916 103.922 42.0788C105.799 44.4606 105.997 44.7671 108.258 48.276C112.239 54.0355 114.926 56.9471 121.031 58.9208C122.012 59.2378 122.708 60.1184 122.708 61.1491V61.1491C122.708 62.3479 121.78 63.3687 120.582 63.385C116.13 63.4458 113.362 62.4994 109.387 59.9888C108.795 59.615 108.165 59.298 107.492 59.1068C103.456 57.9612 99.5033 57.9428 95.2604 57.802C84.6539 57.0181 78.7977 53.5579 71.849 45.6926C70.6343 44.193 69.6666 42.9983 68.8957 42.0067Z" fill="#332E2E"/>
<path d="M48.8638 37.7563C50.9305 37.1396 52.7935 39.0571 52.1505 41.1158V41.1158C51.9159 41.8668 51.3105 42.8624 50.6559 43.2988C50.5885 43.3437 50.5211 43.3886 50.4537 43.4336C48.882 44.4814 48.2061 46.4514 48.8034 48.2433C48.8529 48.3919 48.9026 48.5409 48.9524 48.6903C49.0396 48.9518 49.1042 49.2209 49.1452 49.4934C49.6109 52.5858 49.6916 53.3064 49.3876 55.8144C49.2045 57.3244 48.581 58.7611 47.5102 59.8413C45.2472 62.1243 42.7196 63.9663 40.0417 65.8749C39.2301 66.5706 38.4184 67.2663 37.5882 67.978C37.3405 68.1902 37.0798 68.3823 36.802 68.5531V68.5531C33.5004 70.5823 29.8096 65.8993 32.6089 63.2194C32.8328 63.005 33.0762 62.7845 33.3412 62.5549C34.2736 61.8922 35.206 61.2296 36.1667 60.5468C39.2867 57.99 40.9246 56.6457 41.9027 52.9692C42.0262 52.5049 42.0857 52.0255 42.105 51.5454C42.186 49.5397 42.2473 47.5331 42.287 45.5261C42.5983 42.8545 42.6229 42.6431 45.0203 39.9788C45.4629 39.4869 45.9923 39.0753 46.58 38.7713C47.5702 38.2592 48.2252 37.9468 48.8638 37.7563Z" fill="#342F2F"/>
<path d="M76.588 106.894C77.1389 106.833 77.6997 106.833 78.251 106.89C80.2077 107.093 81.01 107.207 81.8797 107.572C83.1888 108.12 84.2294 109.207 84.7353 110.533C85.5837 112.757 85.648 114.872 85.4942 117.238C85.3728 119.106 84.6499 121.005 83.1219 122.086C82.2963 122.67 81.5351 122.84 79.8651 123.064C79.2066 123.152 78.538 123.153 77.8789 123.07C75.5994 122.78 74.9442 122.61 73.78 121.694C72.9083 121.009 72.2265 120.1 71.8315 119.064C70.9754 116.818 70.7366 114.882 70.8204 112.6C70.8873 110.778 71.6298 108.947 73.1074 107.879C73.9839 107.246 74.7612 107.097 76.588 106.894Z" fill="#2D2929"/>
<path d="M80.6222 81.8028C81.038 80.1399 82.7032 79.1238 84.3661 79.5395V79.5395C85.6551 79.8618 86.6159 80.9737 86.7262 82.2977C86.9251 84.6847 87.1244 87.0765 87.3255 89.4889C87.6149 92.9617 84.6551 97.0777 81.255 96.3137V96.3137C78.4275 95.6784 77.9692 92.415 78.6721 89.6035C79.3175 87.0218 79.9659 84.4282 80.6222 81.8028Z" fill="#383333"/>
<path d="M58.8696 73.7771C59.1674 72.2879 60.5996 71.3375 62.0729 71.7058V71.7058C63.4503 72.0502 64.3644 73.4281 64.086 74.8203C64.0038 75.2313 63.9214 75.6431 63.8387 76.0564C63.5409 77.5456 62.0784 78.4884 60.6051 78.1201V78.1201C59.2277 77.7758 58.3439 76.4054 58.6224 75.0132C58.7046 74.6022 58.7869 74.1904 58.8696 73.7771Z" fill="#393535"/>
<path d="M101.585 82.3656C101.851 81.0385 102.997 80.0833 104.351 80.0833V80.0833C105.919 80.0833 107.208 81.3544 107.208 82.9224C107.208 83.1586 107.208 83.3952 107.208 83.6321C107.208 85.239 105.929 86.5416 104.322 86.5416V86.5416C102.486 86.5416 101.086 84.8619 101.446 83.0616C101.492 82.83 101.539 82.5981 101.585 82.3656Z" fill="#322D2D"/>
</svg>
